<svg width="188" height="152" viewBox="0 0 188 152" fill="none" xmlns="http://www.w3.org/2000/svg">
<g clip-path="url(#clip0_6433_60115)">
<path d="M47.3838 140.404L47.3643 157.054C47.3643 158.298 48.811 159.31 50.5966 159.312H50.6618C52.4475 159.312 53.8985 158.306 53.8985 157.06L53.9181 140.595C53.9181 140.489 52.4083 140.394 50.5749 140.394H47.3838" fill="#818181"/>
<path d="M50.66 159.613H50.5905C48.6354 159.613 47.0322 158.463 47.0322 157.054L47.0518 140.103H50.5687C51.4594 140.103 52.3066 140.123 52.9583 140.159C53.8533 140.211 54.2486 140.25 54.2486 140.597L54.2291 157.062C54.2176 157.426 54.1132 157.782 53.9244 158.101C53.7356 158.42 53.4678 158.693 53.1429 158.898C52.4198 159.377 51.5492 159.628 50.66 159.613ZM47.7035 140.716L47.6839 157.064C47.6839 158.142 48.9873 159.018 50.5905 159.02H50.66C51.4078 159.032 52.1399 158.821 52.7476 158.417C52.9894 158.267 53.1897 158.066 53.332 157.831C53.4743 157.596 53.5546 157.333 53.5665 157.064L53.5861 140.82C52.5898 140.732 51.589 140.694 50.5883 140.708H47.7035V140.716Z" fill="black"/>
<path d="M235.613 136.284H3.12233C2.50299 136.284 1.90902 136.511 1.47109 136.917C1.03315 137.322 0.787109 137.872 0.787109 138.445C0.787109 139.018 1.03315 139.568 1.47109 139.973C1.90902 140.378 2.50299 140.606 3.12233 140.606H233.332C233.643 140.606 233.951 140.548 234.238 140.436C234.524 140.324 234.784 140.161 235.001 139.955C235.219 139.749 235.389 139.504 235.503 139.237C235.617 138.969 235.672 138.682 235.665 138.395L235.613 136.284Z" fill="#DCDBDA"/>
<path d="M233.333 140.907H3.12299C2.41723 140.907 1.74037 140.648 1.24133 140.186C0.742278 139.724 0.461914 139.098 0.461914 138.444C0.461914 137.791 0.742278 137.165 1.24133 136.703C1.74037 136.241 2.41723 135.982 3.12299 135.982H235.94L235.998 138.394C236.006 138.722 235.942 139.048 235.812 139.353C235.681 139.658 235.486 139.936 235.237 140.17C234.989 140.404 234.693 140.59 234.366 140.717C234.038 140.843 233.687 140.908 233.333 140.907ZM3.12299 136.585C2.59006 136.585 2.07898 136.781 1.70214 137.129C1.32531 137.478 1.1136 137.951 1.1136 138.444C1.1136 138.938 1.32531 139.411 1.70214 139.759C2.07898 140.108 2.59006 140.304 3.12299 140.304H233.333C233.6 140.304 233.865 140.254 234.112 140.158C234.358 140.062 234.582 139.921 234.769 139.744C234.956 139.567 235.102 139.357 235.201 139.126C235.299 138.896 235.346 138.65 235.34 138.402L235.294 136.593L3.12299 136.585Z" fill="black"/>
<path d="M193.005 55.9698C168.947 36.7047 139.132 40.9867 134.833 41.6702C93.4461 47.7837 59.9709 61.7737 54.8464 79.5231C53.7935 83.188 52.9452 86.9006 52.3048 90.6463C42.0624 89.038 24.8708 88.25 14.8587 98.3299L14.8087 98.3821C11.9652 101.261 13.9593 105.913 18.1519 106.317C20.6631 106.558 23.6804 106.791 27.0822 106.944C34.1444 107.262 49.2593 117.398 58.724 124.135C64.6282 130.377 72.9621 134.202 81.9046 134.775H82.048C84.6743 136.406 91.6061 140.226 101.201 140.089C106.263 140.007 111.237 138.857 115.745 136.725L150.584 136.283C166.711 140.616 179.66 140.163 187.552 139.248C198.894 137.936 203.152 135.314 205.057 133.865C211.639 128.839 214.035 121.011 215.729 113.172C219.209 97.0674 213.605 72.4667 193.005 55.9698Z" fill="#F8F3ED"/>
<path d="M100.708 140.405C91.9339 140.405 85.2432 137.116 81.9543 135.089H81.8826C72.8645 134.511 64.4593 130.657 58.5 124.366C42.8594 113.247 32.2803 107.479 27.0667 107.256C24.0472 107.119 21.0364 106.908 18.1168 106.627C17.096 106.53 16.1245 106.172 15.3117 105.593C14.4988 105.013 13.8769 104.235 13.5159 103.346C13.1475 102.482 13.0507 101.539 13.2367 100.626C13.4228 99.7133 13.8841 98.8678 14.5673 98.1873L14.6173 98.1371C19.0987 93.6259 25.4332 90.8275 33.4511 89.8142C40.3764 88.9397 47.3213 89.5871 52.0352 90.3088C52.6689 86.6536 53.5019 83.0303 54.5311 79.4529C56.9989 70.9049 66.1856 62.7851 81.0962 55.9721C95.1901 49.5389 113.752 44.4869 134.78 41.3789C137.872 40.8884 146.185 39.8692 156.545 41.0472C170.71 42.6555 183.047 47.607 193.217 55.7489C202.784 63.4525 209.873 73.4454 213.707 84.6316C217.091 94.4039 217.923 104.564 216.048 113.237C214.465 120.565 212.195 128.823 205.263 134.102C201.716 136.804 195.935 138.587 187.591 139.554C175.541 140.949 163.075 139.956 150.54 136.591L115.825 137.031C111.289 139.16 106.292 140.311 101.207 140.397C101.04 140.405 100.873 140.405 100.708 140.405ZM82.1346 134.482L82.228 134.534C85.4865 136.545 92.2814 139.928 101.197 139.798C106.207 139.712 111.132 138.573 115.597 136.466L115.664 136.434L150.638 135.992L150.686 136.004C163.151 139.351 175.546 140.346 187.522 138.959C195.74 138.008 201.411 136.269 204.859 133.642C211.628 128.487 213.859 120.347 215.421 113.122C218.864 97.1902 213.248 72.5856 192.803 56.2093C169.559 37.5894 140.487 41.0874 134.9 41.978C113.931 45.076 95.4313 50.1038 81.396 56.5168C66.6591 63.2515 57.5898 71.2366 55.1698 79.6117C54.1189 83.267 53.2742 86.9704 52.6391 90.7068L52.5869 91.0084L52.2611 90.9561C42.703 89.4504 25.1529 88.4352 15.1147 98.5452L15.0648 98.5955C14.4629 99.1939 14.0568 99.938 13.8934 100.741C13.73 101.545 13.816 102.375 14.1415 103.135C14.4589 103.916 15.0048 104.601 15.7183 105.112C16.4319 105.623 17.2849 105.94 18.182 106.028C21.0907 106.307 24.0885 106.518 27.0885 106.653C32.441 106.894 43.1483 112.698 58.9127 123.906L58.9605 123.946C64.8041 130.125 73.0511 133.914 81.9022 134.486L82.1346 134.482Z" fill="black"/>
<path d="M115.827 136.987C115.753 136.987 115.681 136.963 115.623 136.92C115.566 136.877 115.526 136.817 115.51 136.75C115.494 136.683 115.503 136.613 115.536 136.552C115.569 136.49 115.623 136.441 115.69 136.412C115.838 136.348 130.579 129.891 133.977 117.716C133.986 117.676 134.003 117.638 134.028 117.604C134.053 117.57 134.086 117.541 134.123 117.52C134.161 117.498 134.203 117.483 134.246 117.477C134.29 117.471 134.335 117.473 134.378 117.483C134.421 117.494 134.461 117.512 134.496 117.537C134.531 117.562 134.56 117.593 134.582 117.629C134.603 117.665 134.616 117.705 134.621 117.746C134.625 117.786 134.62 117.828 134.607 117.867C132.791 124.382 127.816 129.229 123.962 132.14C121.501 134.018 118.817 135.634 115.964 136.955C115.922 136.975 115.875 136.986 115.827 136.987Z" fill="black"/>
<path d="M82.8073 135.379C82.7275 135.379 82.6503 135.353 82.5901 135.304C81.9818 134.814 80.5612 133.463 80.5307 131.529C80.5047 129.826 81.5561 128.642 81.9015 128.252C83.661 126.268 86.2613 126.087 89.2743 125.876C90.973 125.757 92.8998 125.623 94.8875 125.136C98.3871 124.28 101.7 122.412 104.732 119.586C104.794 119.532 104.876 119.503 104.96 119.505C105.045 119.506 105.125 119.538 105.185 119.593C105.245 119.648 105.279 119.723 105.28 119.801C105.282 119.879 105.25 119.955 105.193 120.012C102.08 122.915 98.676 124.837 95.0526 125.719C93.0085 126.22 91.0512 126.356 89.3242 126.477C86.3417 126.678 83.9869 126.851 82.4054 128.634C82.097 128.982 81.1607 130.041 81.1824 131.521C81.2085 133.21 82.4858 134.412 83.0202 134.85C83.0849 134.903 83.1244 134.978 83.1301 135.057C83.1358 135.137 83.1072 135.216 83.0506 135.276C83.0203 135.308 82.9829 135.334 82.9409 135.352C82.899 135.37 82.8534 135.379 82.8073 135.379Z" fill="black"/>
<path d="M98.2308 124.423L105.617 139.701C101.93 140.089 98.2049 140.021 94.5379 139.5C94.5379 139.5 88.1969 138.819 83.9827 135.882C81.0544 133.847 80.9154 132.414 80.8784 131.986C80.709 130.027 82.1036 128.642 82.6445 128.166L82.8074 128.029C84.7625 126.449 88.2382 126.234 88.4554 126.22C90.6799 126.093 93.7537 125.56 98.2308 124.423Z" fill="#444444"/>
<path d="M100.866 140.25C98.7306 140.251 96.5984 140.1 94.4881 139.798C94.2383 139.771 88.0233 139.076 83.7873 136.133C81.7562 134.725 80.6679 133.338 80.555 132.02C80.3833 130.053 81.6411 128.632 82.421 127.959L82.5926 127.814C84.5216 126.25 87.8061 125.97 88.4317 125.93C90.7822 125.783 93.9581 125.194 98.1441 124.121L98.4134 124.052L106.097 139.934L105.662 139.98C104.07 140.152 102.469 140.242 100.866 140.25ZM98.042 124.782C93.945 125.812 90.8126 126.391 88.4708 126.533C88.1015 126.555 84.8235 126.801 83.0162 128.268C82.9488 128.322 82.888 128.375 82.8685 128.393C82.1777 128.996 81.0481 130.256 81.1979 131.971C81.2957 133.109 82.2971 134.347 84.1718 135.65C88.2645 138.493 94.5055 139.194 94.5685 139.2C98.0635 139.697 101.613 139.779 105.13 139.446L98.042 124.782Z" fill="black"/>
<path d="M31.7111 107.884L38.2757 89.8449C33.8165 89.7843 29.3879 90.5357 25.2419 92.0563C22.2574 93.2095 19.4752 94.7679 16.9872 96.6801C16.77 96.851 13.7287 99.2695 13.6201 101.599C13.6201 101.726 13.6201 101.845 13.6201 101.853C13.6701 103.817 15.2124 105.069 15.8055 105.471L15.9836 105.592C17.8018 106.782 20.0197 106.649 23.289 106.724C25.1333 106.766 26.0544 106.788 27.1992 106.925C28.7324 107.112 30.243 107.434 31.7111 107.884Z" fill="#444444"/>
<path d="M31.711 108.187C31.6762 108.186 31.6418 108.181 31.6089 108.171C30.16 107.728 28.6689 107.413 27.1556 107.232C26.026 107.095 25.1071 107.075 23.2781 107.031C22.8675 107.031 22.4721 107.015 22.092 107.009C19.4049 106.968 17.4628 106.938 15.7923 105.845L15.6055 105.716C14.7648 105.113 13.3441 103.83 13.292 101.858C13.292 101.858 13.292 101.723 13.292 101.583C13.4093 99.1422 16.431 96.7157 16.7677 96.4463C19.2927 94.5166 22.1115 92.9423 25.1332 91.7742C29.3186 90.2419 33.7881 89.4838 38.2887 89.5427C38.3406 89.5432 38.3915 89.5551 38.4374 89.5775C38.4833 89.5998 38.5228 89.632 38.5525 89.6714C38.5823 89.7107 38.6015 89.756 38.6085 89.8036C38.6155 89.8511 38.6101 89.8996 38.5928 89.9448L32.0281 107.984C32.0055 108.044 31.9625 108.097 31.9055 108.133C31.8484 108.17 31.7803 108.189 31.711 108.187ZM37.7934 90.1418C33.5357 90.1415 29.3162 90.8857 25.357 92.3351C22.4074 93.4804 19.6566 95.0222 17.1934 96.9107C17.0653 97.0112 14.0458 99.3894 13.935 101.611C13.935 101.721 13.935 101.826 13.935 101.84C13.9806 103.565 15.2384 104.711 15.9922 105.24L16.1594 105.354C17.667 106.339 19.5243 106.359 22.0942 106.408C22.4765 106.408 22.8718 106.42 23.2868 106.43C25.1376 106.472 26.0673 106.494 27.2295 106.631C28.6765 106.805 30.1041 107.097 31.4959 107.503L37.8151 90.1398L37.7934 90.1418Z" fill="black"/>
<path d="M52.0697 90.3471C50.032 84.8086 46.93 74.3085 46.665 64.3834C46.4685 57.0113 47.3861 49.65 49.3912 42.5129C43.6887 31.6686 41.2412 19.605 42.3052 7.58507C42.3611 7.00151 42.5774 6.4409 42.9337 5.95665C43.29 5.47239 43.7743 5.08061 44.3405 4.81861C44.9067 4.55661 45.536 4.43312 46.1683 4.4599C46.8007 4.48669 47.4152 4.66285 47.9532 4.97162L76.6493 21.4786C87.3289 18.7936 98.5466 18.5055 109.371 20.6383L135.397 0.936848C135.805 0.627092 136.295 0.423097 136.816 0.345682C137.337 0.268268 137.871 0.320206 138.363 0.496201C138.856 0.672196 139.289 0.965938 139.618 1.34745C139.948 1.72895 140.162 2.18456 140.239 2.66776C142.356 16.3083 141.126 30.215 136.64 43.3552C138.634 49.0095 139.165 55.0184 138.191 60.8975" fill="#F8F3ED"/>
<path d="M51.7617 90.4432C50.5669 87.1965 46.6438 75.7215 46.331 64.3912C46.1334 57.0281 47.0444 49.6753 49.0377 42.5447C43.3472 31.6785 40.9078 19.5994 41.9733 7.56464C42.0253 6.92939 42.2546 6.31752 42.6388 5.78892C43.023 5.26032 43.549 4.83311 44.1652 4.54912C44.7847 4.25756 45.4752 4.11933 46.1695 4.14787C46.8638 4.1764 47.5383 4.37074 48.1274 4.71197L76.7041 21.1506C87.3423 18.4977 98.5074 18.2098 109.289 20.3102L135.193 0.695283C135.646 0.351283 136.189 0.124716 136.767 0.0387418C137.346 -0.0472321 137.938 0.0104769 138.484 0.205972C139.031 0.401468 139.511 0.727722 139.876 1.15138C140.241 1.57503 140.479 2.08088 140.563 2.61718C142.684 16.2704 141.461 30.1903 136.983 43.3468C138.965 49.0197 139.486 55.043 138.504 60.9354L137.852 60.8429C138.818 55.0108 138.291 49.0502 136.312 43.4413L136.28 43.3488L136.312 43.2564C140.784 30.159 142.01 16.2976 139.899 2.70162C139.829 2.27155 139.638 1.86611 139.345 1.52667C139.051 1.18724 138.666 0.925931 138.227 0.769395C137.789 0.612859 137.314 0.566698 136.85 0.635613C136.386 0.704528 135.95 0.886052 135.587 1.16169L109.439 20.9616L109.286 20.9315C98.5127 18.8083 87.3471 19.095 76.7171 21.7678L76.5803 21.8019L47.7647 5.2246C47.2701 4.93834 46.704 4.77531 46.1212 4.75135C45.5385 4.7274 44.9589 4.84334 44.4389 5.0879C43.9244 5.32491 43.4851 5.68108 43.1634 6.12177C42.8417 6.56247 42.6488 7.07269 42.6033 7.60284C41.5412 19.5715 43.9774 31.5842 49.6568 42.3819L49.7089 42.4824L49.6785 42.5909C47.6804 49.7003 46.7664 57.0334 46.9631 64.3771C47.265 75.623 51.1622 87.0257 52.3504 90.2523L51.7617 90.4432Z" fill="black"/>
<path d="M138.418 51.1456C138.34 51.145 138.265 51.1188 138.207 51.0717C138.148 51.0246 138.11 50.9598 138.098 50.8888C138.087 50.8178 138.103 50.7454 138.144 50.6845C138.185 50.6236 138.248 50.5782 138.322 50.5565L153.637 46.2343C153.717 46.2171 153.802 46.2288 153.873 46.2668C153.944 46.3049 153.997 46.3666 154.022 46.4394C154.046 46.5123 154.039 46.591 154.004 46.6596C153.968 46.7282 153.905 46.7817 153.828 46.8093L138.513 51.1315C138.483 51.1409 138.45 51.1457 138.418 51.1456Z" fill="black"/>
<path d="M153.407 56.372H153.357L138.912 54.2612C138.825 54.2489 138.747 54.2054 138.696 54.1401C138.644 54.0749 138.622 53.9934 138.636 53.9134C138.649 53.8334 138.696 53.7616 138.766 53.7137C138.837 53.6658 138.925 53.6458 139.011 53.6581L153.457 55.7689C153.544 55.7751 153.624 55.8127 153.68 55.8736C153.737 55.9345 153.765 56.0136 153.758 56.0936C153.751 56.1736 153.711 56.2478 153.645 56.3001C153.579 56.3523 153.494 56.3782 153.407 56.372Z" fill="black"/>
<path d="M33.931 56.9751C33.8446 56.9839 33.758 56.9606 33.6901 56.9102C33.6223 56.8599 33.5789 56.7867 33.5693 56.7067C33.5598 56.6267 33.5851 56.5465 33.6395 56.4838C33.6938 56.421 33.7729 56.3808 33.8594 56.372L47.0018 53.658C47.0835 53.646 47.1671 53.6633 47.2356 53.7062C47.3041 53.7492 47.3524 53.8147 47.3707 53.8894C47.3889 53.9641 47.3758 54.0424 47.3339 54.1084C47.292 54.1745 47.2245 54.2233 47.1452 54.245L34.0027 56.959C33.9797 56.9674 33.9556 56.9728 33.931 56.9751Z" fill="black"/>
<path d="M47.6163 50.9443H47.5663L33.1205 48.8334C33.0777 48.8274 33.0366 48.8135 32.9996 48.7928C32.9626 48.772 32.9304 48.7447 32.9047 48.7124C32.8791 48.6801 32.8606 48.6435 32.8503 48.6046C32.84 48.5656 32.8381 48.5252 32.8446 48.4856C32.8512 48.446 32.8661 48.408 32.8885 48.3738C32.911 48.3395 32.9405 48.3097 32.9754 48.286C33.0103 48.2623 33.0499 48.2451 33.0919 48.2356C33.134 48.226 33.1776 48.2243 33.2204 48.2303L47.6662 50.3412C47.7527 50.3473 47.8329 50.385 47.8893 50.4459C47.9458 50.5067 47.9737 50.5859 47.9671 50.6659C47.9605 50.7458 47.9198 50.8201 47.854 50.8723C47.7882 50.9245 47.7027 50.9504 47.6163 50.9443Z" fill="black"/>
<path d="M92.3661 73.7619C110.722 73.7619 125.602 63.2311 125.602 50.2408C125.602 37.2505 110.722 26.7197 92.3661 26.7197C74.0103 26.7197 59.1299 37.2505 59.1299 50.2408C59.1299 63.2311 74.0103 73.7619 92.3661 73.7619Z" fill="#444444"/>
<path d="M92.3658 74.063C73.8599 74.063 58.8037 63.376 58.8037 50.2404C58.8037 37.1047 73.8599 26.4177 92.3658 26.4177C110.872 26.4177 125.928 37.1047 125.928 50.2404C125.928 63.376 110.872 74.063 92.3658 74.063ZM92.3658 27.0208C74.2271 27.0208 59.4554 37.4364 59.4554 50.2404C59.4554 63.0443 74.2271 73.4599 92.3658 73.4599C110.505 73.4599 125.276 63.0443 125.276 50.2404C125.276 37.4364 110.505 27.0208 92.3658 27.0208Z" fill="black"/>
<path d="M71.1855 55.0658C74.9647 55.0658 78.0283 52.2306 78.0283 48.7332C78.0283 45.2358 74.9647 42.4006 71.1855 42.4006C67.4064 42.4006 64.3428 45.2358 64.3428 48.7332C64.3428 52.2306 67.4064 55.0658 71.1855 55.0658Z" fill="#F8F59C"/>
<path d="M71.1862 55.3664C69.7684 55.3664 68.3824 54.9774 67.2035 54.2484C66.0246 53.5194 65.1058 52.4833 64.5633 51.2711C64.0207 50.0588 63.8787 48.7249 64.1553 47.438C64.4319 46.1511 65.1147 44.969 66.1172 44.0412C67.1198 43.1134 68.3971 42.4816 69.7877 42.2256C71.1782 41.9696 72.6196 42.101 73.9295 42.6031C75.2394 43.1053 76.359 43.9556 77.1467 45.0466C77.9344 46.1375 78.3548 47.4202 78.3548 48.7323C78.3548 50.4918 77.5995 52.1792 76.2551 53.4234C74.9108 54.6675 73.0874 55.3664 71.1862 55.3664ZM71.1862 42.7013C69.8973 42.7013 68.6373 43.055 67.5656 43.7177C66.4939 44.3804 65.6586 45.3223 65.1653 46.4243C64.6721 47.5263 64.543 48.739 64.7945 49.9089C65.046 51.0788 65.6666 52.1534 66.578 52.9969C67.4894 53.8403 68.6507 54.4148 69.9148 54.6475C71.179 54.8802 72.4893 54.7607 73.6801 54.3043C74.8709 53.8478 75.8887 53.0748 76.6048 52.083C77.3209 51.0912 77.7031 49.9251 77.7031 48.7323C77.7031 47.1328 77.0165 45.5987 75.7944 44.4677C74.5722 43.3367 72.9146 42.7013 71.1862 42.7013Z" fill="black"/>
<path d="M71.1865 53.2558C73.8859 53.2558 76.0742 51.2307 76.0742 48.7325C76.0742 46.2344 73.8859 44.2092 71.1865 44.2092C68.4871 44.2092 66.2988 46.2344 66.2988 48.7325C66.2988 51.2307 68.4871 53.2558 71.1865 53.2558Z" fill="black"/>
<path d="M71.1862 53.5579C70.155 53.5579 69.147 53.2749 68.2897 52.7447C67.4323 52.2146 66.7641 51.461 66.3695 50.5794C65.9749 49.6978 65.8717 48.7277 66.0728 47.7918C66.274 46.8558 66.7705 45.9961 67.4997 45.3214C68.2288 44.6466 69.1578 44.1871 70.1691 44.0009C71.1804 43.8147 72.2287 43.9103 73.1813 44.2755C74.134 44.6407 74.9482 45.2591 75.5211 46.0525C76.094 46.8459 76.3997 47.7788 76.3997 48.733C76.3997 50.0127 75.8504 51.2399 74.8727 52.1447C73.895 53.0495 72.5689 53.5579 71.1862 53.5579ZM71.1862 44.5113C70.2839 44.5113 69.4019 44.7589 68.6518 45.2228C67.9016 45.6867 67.3169 46.346 66.9716 47.1174C66.6263 47.8889 66.536 48.7377 66.712 49.5567C66.888 50.3756 67.3225 51.1278 67.9605 51.7182C68.5985 52.3087 69.4113 52.7108 70.2962 52.8736C71.1811 53.0365 72.0984 52.9529 72.9319 52.6334C73.7655 52.3139 74.4779 51.7728 74.9792 51.0785C75.4805 50.3842 75.748 49.568 75.748 48.733C75.748 47.6134 75.2674 46.5395 74.4119 45.7478C73.5564 44.9561 72.3961 44.5113 71.1862 44.5113Z" fill="black"/>
<path d="M115.066 55.0658C118.846 55.0658 121.909 52.2306 121.909 48.7332C121.909 45.2358 118.846 42.4006 115.066 42.4006C111.287 42.4006 108.224 45.2358 108.224 48.7332C108.224 52.2306 111.287 55.0658 115.066 55.0658Z" fill="#F8F59C"/>
<path d="M115.066 55.3664C113.648 55.3664 112.262 54.9774 111.083 54.2484C109.905 53.5194 108.986 52.4833 108.443 51.2711C107.901 50.0588 107.759 48.7249 108.035 47.438C108.312 46.1511 108.995 44.969 109.997 44.0412C111 43.1134 112.277 42.4816 113.668 42.2256C115.058 41.9696 116.499 42.101 117.809 42.6031C119.119 43.1053 120.239 43.9556 121.027 45.0466C121.814 46.1375 122.235 47.4202 122.235 48.7323C122.235 50.4918 121.479 52.1792 120.135 53.4234C118.791 54.6675 116.967 55.3664 115.066 55.3664ZM115.066 42.7013C113.777 42.7013 112.517 43.055 111.445 43.7177C110.374 44.3804 109.538 45.3223 109.045 46.4243C108.552 47.5263 108.423 48.739 108.674 49.9089C108.926 51.0788 109.547 52.1534 110.458 52.9969C111.369 53.8403 112.531 54.4148 113.795 54.6475C115.059 54.8802 116.369 54.7607 117.56 54.3043C118.751 53.8478 119.769 53.0748 120.485 52.083C121.201 51.0912 121.583 49.9251 121.583 48.7323C121.583 47.1328 120.896 45.5987 119.674 44.4677C118.452 43.3367 116.794 42.7013 115.066 42.7013Z" fill="black"/>
<path d="M115.066 53.2558C117.766 53.2558 119.954 51.2307 119.954 48.7325C119.954 46.2344 117.766 44.2092 115.066 44.2092C112.367 44.2092 110.179 46.2344 110.179 48.7325C110.179 51.2307 112.367 53.2558 115.066 53.2558Z" fill="black"/>
<path d="M115.066 53.5579C114.035 53.5579 113.027 53.2749 112.17 52.7447C111.312 52.2146 110.644 51.461 110.249 50.5794C109.855 49.6978 109.752 48.7277 109.953 47.7918C110.154 46.8558 110.65 45.9961 111.38 45.3214C112.109 44.6466 113.038 44.1871 114.049 44.0009C115.06 43.8147 116.109 43.9103 117.061 44.2755C118.014 44.6407 118.828 45.2591 119.401 46.0525C119.974 46.8459 120.28 47.7788 120.28 48.733C120.28 50.0127 119.73 51.2399 118.753 52.1447C117.775 53.0495 116.449 53.5579 115.066 53.5579ZM115.066 44.5113C114.164 44.5113 113.282 44.7589 112.532 45.2228C111.781 45.6867 111.197 46.346 110.851 47.1174C110.506 47.8889 110.416 48.7377 110.592 49.5567C110.768 50.3756 111.202 51.1278 111.84 51.7182C112.478 52.3087 113.291 52.7108 114.176 52.8736C115.061 53.0365 115.978 52.9529 116.812 52.6334C117.645 52.3139 118.358 51.7728 118.859 51.0785C119.36 50.3842 119.628 49.568 119.628 48.733C119.628 47.6134 119.147 46.5395 118.292 45.7478C117.436 44.9561 116.276 44.5113 115.066 44.5113Z" fill="black"/>
<path d="M90.7933 49.9652L93.0177 50.2406L95.0575 49.9712C95.1456 49.9594 95.2356 49.9713 95.3166 50.0054C95.3977 50.0396 95.4664 50.0945 95.5147 50.1638C95.563 50.233 95.5888 50.3136 95.589 50.396C95.5892 50.4784 95.5638 50.5592 95.5158 50.6286L93.5412 53.4994C93.4827 53.5808 93.4037 53.6477 93.3111 53.6946C93.2184 53.7414 93.1148 53.7667 93.0092 53.7683C92.9037 53.7699 92.7992 53.7477 92.705 53.7037C92.6107 53.6596 92.5294 53.595 92.4681 53.5155L90.3458 50.6347C90.2958 50.5657 90.2683 50.4849 90.2667 50.4018C90.265 50.3188 90.2892 50.2371 90.3364 50.1665C90.3837 50.0959 90.4519 50.0393 90.5329 50.0036C90.6139 49.968 90.7043 49.9546 90.7933 49.9652Z" fill="#F3D2C9"/>
<path d="M92.9979 54.0764C92.8391 54.0756 92.6831 54.0384 92.5436 53.9683C92.4041 53.8981 92.2855 53.7971 92.1985 53.6743L90.0761 50.7955C89.99 50.6787 89.9422 50.5413 89.9387 50.3999C89.9351 50.2585 89.9759 50.1192 90.0561 49.9988C90.1363 49.8784 90.2525 49.7822 90.3906 49.7216C90.5287 49.661 90.6828 49.6388 90.8343 49.6576L93.0066 49.927L95.0029 49.6616C95.1525 49.6424 95.3049 49.6632 95.4422 49.7214C95.5795 49.7797 95.696 49.873 95.7779 49.9904C95.8598 50.1079 95.9038 50.2445 95.9046 50.3843C95.9055 50.524 95.8632 50.6611 95.7828 50.7794L93.8082 53.6502C93.7224 53.7757 93.6042 53.8794 93.4642 53.952C93.3243 54.0247 93.167 54.064 93.0066 54.0663L92.9979 54.0764ZM90.7278 50.2567C90.7043 50.2565 90.6813 50.2622 90.661 50.2732C90.6407 50.2842 90.6241 50.3 90.6127 50.319C90.5971 50.3396 90.5887 50.3642 90.5887 50.3894C90.5887 50.4146 90.5971 50.4391 90.6127 50.4598L92.735 53.3386C92.7653 53.3781 92.8054 53.4104 92.8519 53.4327C92.8983 53.4551 92.9499 53.4669 93.0022 53.4672C93.055 53.467 93.1068 53.4543 93.1528 53.4304C93.1988 53.4064 93.2374 53.3721 93.2651 53.3305L95.2375 50.4598C95.2533 50.4396 95.2617 50.4153 95.2617 50.3904C95.2617 50.3655 95.2533 50.3412 95.2375 50.321C95.2236 50.2998 95.2031 50.2829 95.1787 50.2725C95.1543 50.2621 95.1272 50.2587 95.1007 50.2627L93.0174 50.5381L90.7474 50.2587L90.7278 50.2567Z" fill="black"/>
<path d="M89.7715 57.2086C89.5543 57.2086 89.3175 57.1965 89.0742 57.1744C88.9878 57.1664 88.9083 57.127 88.8533 57.0648C88.7983 57.0026 88.7723 56.9227 88.7809 56.8427C88.7896 56.7627 88.8322 56.6892 88.8994 56.6383C88.9666 56.5874 89.0529 56.5633 89.1394 56.5713C90.4123 56.6879 91.3464 56.4668 91.9112 55.9119C92.7389 55.1078 92.5325 53.8312 92.5303 53.8171C92.5171 53.7372 92.5387 53.6556 92.5904 53.5904C92.6422 53.5251 92.7198 53.4816 92.8062 53.4693C92.8926 53.4571 92.9808 53.4771 93.0513 53.525C93.1217 53.5729 93.1688 53.6447 93.182 53.7247C93.182 53.787 93.4383 55.3028 92.3935 56.3261C91.7896 56.9151 90.912 57.2086 89.7715 57.2086Z" fill="black"/>
<path d="M96.1242 57.4094C94.9837 57.4094 94.1083 57.1159 93.5174 56.5309C92.4726 55.5076 92.718 53.9918 92.7289 53.9295C92.7421 53.8495 92.7892 53.7777 92.8596 53.7298C92.9301 53.6819 93.0183 53.6619 93.1047 53.6742C93.1911 53.6864 93.2687 53.73 93.3205 53.7952C93.3722 53.8604 93.3938 53.942 93.3806 54.022C93.3806 54.0441 93.1807 55.3186 94.0019 56.1208C94.5688 56.6736 95.4986 56.8927 96.7715 56.7761C96.858 56.7681 96.9443 56.7922 97.0115 56.8431C97.0787 56.894 97.1213 56.9676 97.13 57.0475C97.1386 57.1275 97.1126 57.2074 97.0576 57.2696C97.0026 57.3318 96.9231 57.3713 96.8367 57.3793C96.5804 57.3973 96.3479 57.4094 96.1242 57.4094Z" fill="black"/>
<path d="M109.381 20.6417L135.407 0.940275C135.815 0.63052 136.305 0.426512 136.826 0.349098C137.347 0.271683 137.881 0.323633 138.373 0.499628C138.866 0.675623 139.299 0.969365 139.628 1.35087C139.958 1.73238 140.172 2.18799 140.249 2.67118C140.953 7.21055 141.146 11.8102 141.194 18.955C141.242 26.0998 138.527 32.6495 136.68 43.4049C130.282 33.4336 120.762 25.4957 109.381 20.6417Z" fill="#444444"/>
<path d="M136.86 44.2742L136.4 43.5605C130.035 33.6416 120.566 25.7451 109.246 20.9159L108.774 20.7149L135.203 0.701887C135.655 0.357888 136.198 0.131308 136.777 0.0453336C137.355 -0.0406404 137.947 0.0170687 138.494 0.212564C139.04 0.408059 139.52 0.734326 139.885 1.15798C140.251 1.58164 140.488 2.08749 140.573 2.62378C141.307 7.35815 141.476 12.1971 141.522 18.9579C141.552 23.3344 140.536 27.5581 139.35 32.4453C138.585 35.6257 137.718 39.2302 136.993 43.4539L136.86 44.2742ZM109.989 20.5722C120.948 25.3515 130.159 32.9902 136.491 42.5493C137.188 38.6552 137.996 35.3 138.713 32.3146C139.927 27.2626 140.885 23.268 140.859 18.9619C140.814 12.2272 140.642 7.4084 139.917 2.70821C139.847 2.27814 139.656 1.87272 139.363 1.53328C139.069 1.19384 138.684 0.932523 138.245 0.775987C137.807 0.619451 137.331 0.57329 136.868 0.642205C136.404 0.71112 135.968 0.892656 135.605 1.16829L109.989 20.5722Z" fill="black"/>
<path d="M140.156 2.79663C140.156 2.79663 124.95 21.8949 123.429 26.3177C122.291 29.6247 127.474 27.9863 130.164 26.949C130.28 26.9045 130.408 26.8936 130.531 26.9179C130.654 26.9421 130.767 27.0002 130.853 27.0846C130.94 27.169 130.997 27.2757 131.017 27.3908C131.037 27.5058 131.019 27.6237 130.965 27.729L129.162 31.2531C129.046 31.4792 129.005 31.7318 129.043 31.9795C129.081 32.2272 129.197 32.459 129.377 32.6462C129.556 32.8334 129.791 32.9677 130.052 33.0324C130.313 33.0971 130.589 33.0894 130.846 33.0102L132.998 32.3467C133.112 32.3115 133.234 32.3072 133.35 32.3346C133.467 32.3619 133.572 32.4197 133.653 32.5009C133.735 32.5822 133.79 32.6835 133.811 32.7927C133.832 32.9019 133.818 33.0144 133.772 33.1167L132.992 36.5705L136.685 43.4057C141.109 30.2799 142.296 16.4032 140.16 2.79663H140.156Z" fill="#F3D2C9"/>
<path d="M136.75 44.2095L132.644 36.6104L133.467 32.9918C133.489 32.9427 133.496 32.8887 133.486 32.8363C133.475 32.7838 133.449 32.7352 133.41 32.6962C133.371 32.6572 133.32 32.6295 133.265 32.6163C133.209 32.6031 133.15 32.6051 133.096 32.6219L130.943 33.2873C130.626 33.3858 130.284 33.3957 129.961 33.3158C129.638 33.2359 129.348 33.0697 129.126 32.8379C128.904 32.6061 128.761 32.319 128.715 32.0125C128.668 31.7059 128.72 31.3935 128.864 31.1141L130.667 27.59C130.693 27.5395 130.702 27.4827 130.693 27.4273C130.683 27.3719 130.655 27.3206 130.613 27.2804C130.572 27.2395 130.518 27.2114 130.459 27.1999C130.4 27.1884 130.338 27.194 130.283 27.2161C126.635 28.6233 124.313 28.941 123.383 28.1529C122.905 27.7508 122.816 27.0955 123.118 26.2169C124.639 21.7942 139.272 3.38943 139.893 2.6074L140.364 2.01636L140.477 2.74209C142.626 16.393 141.438 30.316 137.002 43.4858L136.75 44.2095ZM133.33 36.53L136.608 42.5972C140.743 29.9628 141.881 16.6513 139.945 3.57236C137.364 6.84119 125.076 22.5199 123.74 26.4079C123.522 27.0452 123.548 27.4855 123.822 27.7187C124.509 28.2996 126.829 27.9076 130.033 26.6693C130.21 26.6015 130.406 26.5851 130.594 26.6221C130.781 26.6591 130.953 26.7478 131.085 26.8765C131.217 27.0053 131.304 27.168 131.335 27.3435C131.365 27.5189 131.338 27.6987 131.256 27.8594L129.453 31.3815C129.364 31.5541 129.333 31.7469 129.362 31.9359C129.391 32.125 129.479 32.302 129.616 32.4451C129.753 32.5881 129.932 32.6908 130.131 32.7405C130.33 32.7901 130.541 32.7846 130.737 32.7244L132.889 32.061C133.06 32.0082 133.242 32.0011 133.417 32.0406C133.591 32.0801 133.75 32.1645 133.874 32.284C133.999 32.4035 134.084 32.5533 134.121 32.7159C134.157 32.8786 134.143 33.0474 134.08 33.2029L133.33 36.53Z" fill="black"/>
<path d="M76.5077 21.4923C66.98 16.0262 57.0982 10.2143 47.5705 4.74816C45.6002 3.61834 42.4308 5.07383 42.4026 7.21887C42.3439 11.8045 41.5337 16.8886 43.0543 23.9048C43.8732 27.6923 44.2382 29.6503 45.0658 32.2477C46.1773 35.7395 47.612 39.1362 49.354 42.4C50.4745 40.3566 51.7827 38.4061 53.2641 36.57C54.5132 35.02 59.0337 29.6503 67.1668 25.312C70.1256 23.7363 73.2568 22.4559 76.5077 21.4923Z" fill="#444444"/>
<path d="M49.3494 43.0738L49.0626 42.533C47.3135 39.2538 45.8716 35.8418 44.7528 32.3345C44.0555 30.1452 43.6666 28.3681 43.1018 25.6803C42.9889 25.1495 42.8672 24.5806 42.7347 23.9634C41.5595 18.5355 41.7702 14.2474 41.9549 10.472C42.0113 9.33813 42.0635 8.26058 42.0765 7.2152C42.0895 6.16982 42.8042 5.14857 43.9881 4.54747C45.2481 3.90617 46.6861 3.88607 47.7419 4.49319C52.5057 7.22324 57.4369 10.09 62.2073 12.8623C66.9776 15.6345 71.9131 18.5033 76.6791 21.2374L77.2787 21.5812L76.6074 21.7822C73.3785 22.7394 70.2685 24.011 67.3295 25.5757C60.0154 29.4778 55.5404 34.2524 53.5245 36.7532C52.0554 38.5759 50.7574 40.5116 49.6448 42.539L49.3494 43.0738ZM46.0019 4.66005C45.4068 4.66464 44.8227 4.80775 44.3031 5.0762C43.3278 5.57074 42.7391 6.37287 42.7282 7.22325C42.7152 8.28471 42.6608 9.36024 42.6065 10.4981C42.4219 14.2414 42.2134 18.4812 43.3734 23.8468C43.5059 24.464 43.6275 25.0309 43.7427 25.5636C44.3314 28.3299 44.6876 30.0025 45.3784 32.1636C46.4251 35.4464 47.7575 38.6452 49.3624 41.7289C50.4246 39.8644 51.6419 38.0792 53.0032 36.3894C55.0495 33.8523 59.5874 29.0074 67.0037 25.051C69.7814 23.5732 72.7101 22.353 75.7472 21.4083C71.1637 18.7767 66.4389 16.0306 61.864 13.3669C57.0849 10.5946 52.1647 7.7379 47.403 4.99779C46.9788 4.76723 46.4937 4.65031 46.0019 4.66005Z" fill="black"/>
<path d="M42.4015 6.81689C42.4015 6.81689 58.7763 20.0731 60.8031 23.545C60.9225 23.746 61.4309 24.6748 61.0551 25.095C60.3382 25.8991 57.2731 23.8727 55.8698 24.91C55.7275 25.0172 55.6081 25.1482 55.5179 25.296C55.3599 25.5703 55.2912 25.8811 55.3201 26.1908C55.349 26.5005 55.4743 26.7958 55.6808 27.041C56.15 27.618 56.7669 28.5427 56.7083 29.4213C56.7079 29.6825 56.6207 29.9373 56.4585 30.151C56.0392 30.6255 55.2593 30.6295 55.0443 30.6295C53.6214 30.6295 52.8524 29.3609 52.8177 29.3026C52.6321 29.1638 52.3994 29.0903 52.1608 29.0951C51.9223 29.0999 51.6932 29.1826 51.5143 29.3288C51.4012 29.439 51.3296 29.58 51.3101 29.7308C51.2598 30.0788 51.3217 30.4327 51.4882 30.7481C51.9596 31.6306 51.4079 34.4773 51.0864 35.7599C50.6009 37.6735 49.7946 39.505 48.6968 41.1878C46.7418 37.2355 44.1024 30.935 42.8316 23.2957C42.1417 19.1237 41.8879 14.8999 42.0735 10.6828C42.156 9.10869 42.2929 7.78186 42.4015 6.81689Z" fill="#F3D2C9"/>
<path d="M48.702 41.4956H48.6847C48.6252 41.4926 48.5678 41.4745 48.5187 41.4433C48.4697 41.4121 48.4309 41.3689 48.4066 41.3186C45.5573 35.6081 43.5733 29.5608 42.511 23.3481C41.8174 19.1589 41.5621 14.9175 41.7485 10.6829C41.8137 9.38627 41.9223 8.06949 42.0743 6.79091C42.0796 6.73547 42.1013 6.68245 42.1371 6.63773C42.1729 6.59301 42.2213 6.55832 42.2771 6.53751C42.3328 6.5167 42.3937 6.51057 42.453 6.51981C42.5123 6.52906 42.5677 6.55331 42.6131 6.58988C43.2821 7.13267 59.0552 19.9225 61.0776 23.4024C61.2949 23.7884 61.7771 24.7494 61.2949 25.2881C60.8126 25.8269 59.9328 25.5575 58.8923 25.2741C57.8518 24.9906 56.6939 24.6709 56.0683 25.1454C55.9578 25.2282 55.8656 25.3299 55.7968 25.4449C55.6709 25.6669 55.6171 25.9179 55.6418 26.1676C55.6664 26.4172 55.7685 26.655 55.9358 26.8522C56.4637 27.5015 57.0806 28.4785 57.022 29.4294C57.0184 29.7548 56.9052 30.071 56.6983 30.3341C56.3551 30.7221 55.7946 30.9211 55.0343 30.9231C53.5723 30.9231 52.7382 29.7692 52.56 29.4938C52.4363 29.4192 52.2901 29.3832 52.1427 29.3912C51.9953 29.3992 51.8546 29.4506 51.7411 29.538C51.6786 29.6054 51.6399 29.6889 51.6303 29.7772C51.5912 30.0636 51.6433 30.3542 51.7802 30.6135C52.3949 31.7635 51.5065 35.4142 51.4022 35.8264C50.9096 37.7705 50.0908 39.6312 48.9757 41.3408C48.9483 41.3861 48.9087 41.4241 48.8607 41.4512C48.8128 41.4783 48.7582 41.4936 48.702 41.4956ZM42.6608 7.42819C42.5435 8.51579 42.4588 9.61545 42.4045 10.7031C42.2181 14.9 42.4706 19.1037 43.1583 23.2557C44.1748 29.2237 46.0518 35.0385 48.739 40.5447C49.6609 39.0294 50.3462 37.4009 50.7744 35.7078C51.1589 34.1739 51.5912 31.6248 51.2089 30.897C51.0061 30.5246 50.9304 30.1039 50.9916 29.6908C51.0209 29.4734 51.1262 29.2708 51.2914 29.1138C51.5293 28.9176 51.835 28.8063 52.1535 28.8C52.4721 28.7938 52.7826 28.8929 53.0293 29.0796C53.0595 29.1019 53.0839 29.13 53.1009 29.1621C53.1009 29.1741 53.7983 30.3301 55.0365 30.3301C55.5926 30.3301 55.9836 30.2054 56.1986 29.9622C56.3158 29.7976 56.3771 29.6044 56.3746 29.4073C56.418 28.6374 55.875 27.7991 55.4123 27.2241C55.1669 26.9323 55.0188 26.5807 54.986 26.2122C54.9532 25.8437 55.0372 25.4744 55.2276 25.1494C55.3391 24.9681 55.4865 24.8078 55.6621 24.677C56.5593 24.0136 57.8996 24.3774 59.0813 24.6991C59.7634 24.884 60.6019 25.1132 60.8017 24.9001C60.9473 24.7373 60.8235 24.2166 60.5128 23.6939C58.7337 20.6322 45.361 9.63354 42.6608 7.42819Z" fill="black"/>
<path d="M216.622 102.912C219.839 104.283 224.929 107.015 228.352 112.16C236.264 124.051 230.368 141.463 219.366 150.624C211.38 157.274 202.185 158.319 194.951 159.182C190.711 159.686 171.056 161.952 157.557 150.624C154.827 148.332 148.433 142.962 149.376 136.324C149.865 132.906 152.372 128.345 156.647 127.076C164.839 124.636 169.742 137.162 185.124 138.702C187.339 138.923 196.828 139.623 204.24 134.079C205.454 133.17 207.457 131.465 209.888 127.645C212.386 123.719 216.607 115.581 216.622 102.912Z" fill="#444444"/>
<path d="M186.444 160C174.631 160 164.491 156.85 157.335 150.847C154.566 148.523 148.079 143.079 149.05 136.284C149.591 132.513 152.339 128.042 156.545 126.783C160.672 125.555 163.885 127.891 167.96 130.844C172.12 133.86 177.301 137.609 185.156 138.397C188.547 138.737 197.173 138.972 204.033 133.837C205.285 132.901 207.225 131.224 209.605 127.487C213.97 120.634 216.283 112.136 216.294 102.912V102.442L216.757 102.643C221.97 104.87 225.976 108.021 228.628 112.005C232.356 117.608 233.292 124.883 231.265 132.491C229.389 139.541 225.129 146.231 219.581 150.853C211.584 157.511 202.48 158.593 195.166 159.463L194.99 159.484C192.156 159.825 189.302 159.997 186.444 160ZM158.743 127.061C158.065 127.062 157.391 127.162 156.747 127.358C152.798 128.534 150.213 132.786 149.7 136.362C148.772 142.844 155.081 148.139 157.774 150.401C166.463 157.686 179.645 160.698 194.921 158.882L195.097 158.86C202.322 158.002 211.313 156.932 219.157 150.399C229.801 141.533 235.936 124.115 228.085 112.319C225.581 108.553 221.838 105.55 216.957 103.387C216.867 112.536 214.528 120.965 210.179 127.792C207.746 131.612 205.747 133.341 204.455 134.308C197.406 139.583 188.571 139.334 185.1 138.996C177.062 138.192 171.796 134.372 167.574 131.321C164.348 128.989 161.684 127.061 158.743 127.061Z" fill="black"/>
</g>
<defs>
<clipPath id="clip0_6433_60115">
<rect width="235.537" height="160" fill="white" transform="translate(0.462891)"/>
</clipPath>
</defs>
</svg>
