<svg width="175" height="152" viewBox="0 0 175 152" fill="none" xmlns="http://www.w3.org/2000/svg">
<path d="M180.005 55.9698C155.947 36.7047 126.132 40.9867 121.833 41.6702C80.4461 47.7837 46.9709 61.7737 41.8464 79.5231C40.7935 83.188 39.9452 86.9006 39.3048 90.6463C29.0624 89.038 11.8708 88.25 1.85867 98.3299L1.80872 98.3821C-1.03483 101.261 0.959348 105.913 5.15189 106.317C7.66307 106.558 10.6804 106.791 14.0822 106.944C21.1444 107.262 36.2593 117.398 45.724 124.135C51.6282 130.377 59.9621 134.202 68.9046 134.775H69.048C71.6743 136.406 78.6061 140.226 88.2012 140.089C93.2626 140.007 98.2369 138.857 102.745 136.725L137.584 136.283C153.711 140.616 166.66 140.163 174.552 139.248C185.894 137.936 190.152 135.314 192.057 133.865C198.639 128.839 201.035 121.011 202.729 113.172C206.209 97.0674 200.605 72.4667 180.005 55.9698Z" fill="#F8F3ED"/>
<path d="M87.7078 140.405C78.9339 140.405 72.2432 137.116 68.9543 135.089H68.8826C59.8645 134.511 51.4593 130.657 45.5 124.366C29.8594 113.247 19.2803 107.479 14.0667 107.256C11.0472 107.119 8.03641 106.908 5.11684 106.627C4.09599 106.53 3.12451 106.172 2.31167 105.593C1.49883 105.013 0.876919 104.235 0.515915 103.346C0.147469 102.482 0.0506683 101.539 0.236714 100.626C0.42276 99.7133 0.884053 98.8678 1.5673 98.1873L1.61726 98.1371C6.09872 93.6259 12.4332 90.8275 20.4511 89.8142C27.3764 88.9397 34.3213 89.5871 39.0352 90.3088C39.6689 86.6536 40.5019 83.0303 41.5311 79.4529C43.9989 70.9049 53.1856 62.7851 68.0962 55.9721C82.1901 49.5389 100.752 44.4869 121.78 41.3789C124.872 40.8884 133.185 39.8692 143.545 41.0472C157.71 42.6555 170.047 47.607 180.217 55.7489C189.784 63.4525 196.873 73.4454 200.707 84.6316C204.091 94.4039 204.923 104.564 203.048 113.237C201.465 120.565 199.195 128.823 192.263 134.102C188.716 136.804 182.935 138.587 174.591 139.554C162.541 140.949 150.075 139.956 137.54 136.591L102.825 137.031C98.2895 139.16 93.292 140.311 88.2074 140.397C88.0401 140.405 87.8729 140.405 87.7078 140.405ZM69.1346 134.482L69.228 134.534C72.4865 136.545 79.2814 139.928 88.1966 139.798C93.2075 139.712 98.1317 138.573 102.597 136.466L102.664 136.434L137.638 135.992L137.686 136.004C150.151 139.351 162.546 140.346 174.522 138.959C182.74 138.008 188.411 136.269 191.859 133.642C198.628 128.487 200.859 120.347 202.421 113.122C205.864 97.1902 200.248 72.5856 179.803 56.2093C156.559 37.5894 127.487 41.0874 121.9 41.978C100.931 45.076 82.4313 50.1038 68.396 56.5168C53.6591 63.2515 44.5898 71.2366 42.1698 79.6117C41.1189 83.267 40.2742 86.9704 39.6391 90.7068L39.5869 91.0084L39.2611 90.9561C29.703 89.4504 12.1529 88.4352 2.11473 98.5452L2.06477 98.5955C1.46294 99.1939 1.05677 99.938 0.893364 100.741C0.729957 101.545 0.816009 102.375 1.14154 103.135C1.45886 103.916 2.0048 104.601 2.71834 105.112C3.43188 105.623 4.28489 105.94 5.18202 106.028C8.09073 106.307 11.0885 106.518 14.0885 106.653C19.441 106.894 30.1483 112.698 45.9127 123.906L45.9605 123.946C51.8041 130.125 60.0511 133.914 68.9022 134.486L69.1346 134.482Z" fill="black"/>
<path d="M102.827 136.987C102.753 136.987 102.681 136.963 102.623 136.92C102.566 136.877 102.526 136.817 102.51 136.75C102.494 136.683 102.503 136.613 102.536 136.552C102.569 136.49 102.623 136.441 102.69 136.412C102.838 136.348 117.579 129.891 120.977 117.716C120.986 117.676 121.003 117.638 121.028 117.604C121.053 117.57 121.086 117.541 121.123 117.52C121.161 117.498 121.203 117.483 121.246 117.477C121.29 117.471 121.335 117.473 121.378 117.483C121.421 117.494 121.461 117.512 121.496 117.537C121.531 117.562 121.56 117.593 121.582 117.629C121.603 117.665 121.616 117.705 121.621 117.746C121.625 117.786 121.62 117.828 121.607 117.867C119.791 124.382 114.816 129.229 110.962 132.14C108.501 134.018 105.817 135.634 102.964 136.955C102.922 136.975 102.875 136.986 102.827 136.987Z" fill="black"/>
<path d="M69.8073 135.379C69.7275 135.379 69.6503 135.353 69.5901 135.304C68.9818 134.814 67.5612 133.463 67.5307 131.529C67.5047 129.826 68.5561 128.642 68.9015 128.252C70.661 126.268 73.2613 126.087 76.2743 125.876C77.973 125.757 79.8998 125.623 81.8875 125.136C85.3871 124.28 88.6999 122.412 91.7324 119.586C91.7942 119.532 91.8758 119.503 91.9603 119.505C92.0447 119.506 92.1252 119.538 92.1849 119.593C92.2446 119.648 92.2788 119.723 92.2803 119.801C92.2818 119.879 92.2505 119.955 92.1929 120.012C89.08 122.915 85.676 124.837 82.0526 125.719C80.0085 126.22 78.0512 126.356 76.3242 126.477C73.3417 126.678 70.9869 126.851 69.4054 128.634C69.097 128.982 68.1607 130.041 68.1824 131.521C68.2085 133.21 69.4858 134.412 70.0202 134.85C70.0849 134.903 70.1244 134.978 70.1301 135.057C70.1358 135.137 70.1072 135.216 70.0506 135.276C70.0203 135.308 69.9829 135.334 69.9409 135.352C69.899 135.37 69.8534 135.379 69.8073 135.379Z" fill="black"/>
<path d="M85.2308 124.423L92.6166 139.701C88.9304 140.089 85.2049 140.021 81.5379 139.5C81.5379 139.5 75.1969 138.819 70.9827 135.882C68.0544 133.847 67.9154 132.414 67.8784 131.986C67.709 130.027 69.1036 128.642 69.6445 128.166L69.8074 128.029C71.7625 126.449 75.2382 126.234 75.4554 126.22C77.6799 126.093 80.7537 125.56 85.2308 124.423Z" fill="#444444"/>
<path d="M87.866 140.25C85.7306 140.251 83.5984 140.1 81.4881 139.798C81.2383 139.771 75.0233 139.076 70.7873 136.133C68.7562 134.725 67.6679 133.338 67.555 132.02C67.3833 130.053 68.6411 128.632 69.421 127.959L69.5926 127.814C71.5216 126.25 74.8061 125.97 75.4317 125.93C77.7822 125.783 80.9581 125.194 85.1441 124.121L85.4134 124.052L93.0969 139.934L92.6624 139.98C91.0702 140.152 89.469 140.242 87.866 140.25ZM85.042 124.782C80.945 125.812 77.8126 126.391 75.4708 126.533C75.1015 126.555 71.8235 126.801 70.0162 128.268C69.9488 128.322 69.888 128.375 69.8685 128.393C69.1777 128.996 68.0481 130.256 68.1979 131.971C68.2957 133.109 69.2971 134.347 71.1718 135.65C75.2645 138.493 81.5055 139.194 81.5685 139.2C85.0635 139.697 88.6127 139.779 92.1302 139.446L85.042 124.782Z" fill="black"/>
<path d="M18.7111 107.884L25.2757 89.8449C20.8165 89.7843 16.3879 90.5357 12.2419 92.0563C9.2574 93.2095 6.47525 94.7679 3.98719 96.6801C3.76996 96.851 0.728732 99.2695 0.620117 101.599C0.620117 101.726 0.620117 101.845 0.620117 101.853C0.67008 103.817 2.21243 105.069 2.80547 105.471L2.98358 105.592C4.8018 106.782 7.01972 106.649 10.289 106.724C12.1333 106.766 13.0544 106.788 14.1992 106.925C15.7324 107.112 17.243 107.434 18.7111 107.884Z" fill="#444444"/>
<path d="M18.711 108.187C18.6762 108.186 18.6418 108.181 18.6089 108.171C17.16 107.728 15.6689 107.413 14.1556 107.232C13.026 107.095 12.1071 107.075 10.2781 107.031C9.86749 107.031 9.47214 107.015 9.09199 107.009C6.40485 106.968 4.46281 106.938 2.79231 105.845L2.6055 105.716C1.76482 105.113 0.344127 103.83 0.291992 101.858C0.291992 101.858 0.291992 101.723 0.291992 101.583C0.409297 99.1422 3.43097 96.7157 3.76768 96.4463C6.29266 94.5166 9.11154 92.9423 12.1332 91.7742C16.3186 90.2419 20.7881 89.4838 25.2887 89.5427C25.3406 89.5432 25.3915 89.5551 25.4374 89.5775C25.4833 89.5998 25.5228 89.632 25.5525 89.6714C25.5823 89.7107 25.6015 89.756 25.6085 89.8036C25.6155 89.8511 25.6101 89.8996 25.5928 89.9448L19.0281 107.984C19.0055 108.044 18.9625 108.097 18.9055 108.133C18.8484 108.17 18.7803 108.189 18.711 108.187ZM24.7934 90.1418C20.5357 90.1415 16.3162 90.8857 12.357 92.3351C9.40741 93.4804 6.65659 95.0222 4.19344 96.9107C4.06527 97.0112 1.04577 99.3894 0.934985 101.611C0.934985 101.721 0.934985 101.826 0.934985 101.84C0.980604 103.565 2.23839 104.711 2.99218 105.24L3.15942 105.354C4.667 106.339 6.52433 106.359 9.09417 106.408C9.47649 106.408 9.87185 106.42 10.2868 106.43C12.1376 106.472 13.0673 106.494 14.2295 106.631C15.6765 106.805 17.1041 107.097 18.4959 107.503L24.8151 90.1398L24.7934 90.1418Z" fill="black"/>
<path d="M39.0697 90.3471C37.032 84.8086 33.93 74.3085 33.665 64.3834C33.4685 57.0113 34.3861 49.65 36.3912 42.5129C30.6887 31.6686 28.2412 19.605 29.3052 7.58507C29.3611 7.00151 29.5774 6.4409 29.9337 5.95665C30.29 5.47239 30.7743 5.08061 31.3405 4.81861C31.9067 4.55661 32.536 4.43312 33.1683 4.4599C33.8007 4.48669 34.4152 4.66285 34.9532 4.97162L63.6493 21.4786C74.3289 18.7936 85.5466 18.5055 96.3707 20.6383L122.397 0.936848C122.805 0.627092 123.295 0.423097 123.816 0.345682C124.337 0.268268 124.871 0.320206 125.363 0.496201C125.856 0.672196 126.289 0.965938 126.618 1.34745C126.948 1.72895 127.162 2.18456 127.239 2.66776C129.356 16.3083 128.126 30.215 123.64 43.3552C125.634 49.0095 126.165 55.0184 125.191 60.8975" fill="#F8F3ED"/>
<path d="M38.7617 90.4432C37.5669 87.1965 33.6438 75.7215 33.331 64.3912C33.1334 57.0281 34.0444 49.6753 36.0377 42.5447C30.3472 31.6785 27.9078 19.5994 28.9733 7.56464C29.0253 6.92939 29.2546 6.31752 29.6388 5.78892C30.023 5.26032 30.549 4.83311 31.1652 4.54912C31.7847 4.25756 32.4752 4.11933 33.1695 4.14787C33.8638 4.1764 34.5383 4.37074 35.1274 4.71197L63.7041 21.1506C74.3423 18.4977 85.5074 18.2098 96.2886 20.3102L122.193 0.695283C122.646 0.351283 123.189 0.124716 123.767 0.0387418C124.346 -0.0472321 124.938 0.0104769 125.484 0.205972C126.031 0.401468 126.511 0.727722 126.876 1.15138C127.241 1.57503 127.479 2.08088 127.563 2.61718C129.684 16.2704 128.461 30.1903 123.983 43.3468C125.965 49.0197 126.486 55.043 125.504 60.9354L124.852 60.8429C125.818 55.0108 125.291 49.0502 123.312 43.4413L123.28 43.3488L123.312 43.2564C127.784 30.159 129.01 16.2976 126.899 2.70162C126.829 2.27155 126.638 1.86611 126.345 1.52667C126.051 1.18724 125.666 0.925931 125.227 0.769395C124.789 0.612859 124.314 0.566698 123.85 0.635613C123.386 0.704528 122.95 0.886052 122.587 1.16169L96.4385 20.9616L96.2865 20.9315C85.5127 18.8083 74.3471 19.095 63.7171 21.7678L63.5803 21.8019L34.7647 5.2246C34.2701 4.93834 33.704 4.77531 33.1212 4.75135C32.5385 4.7274 31.9589 4.84334 31.4389 5.0879C30.9244 5.32491 30.4851 5.68108 30.1634 6.12177C29.8417 6.56247 29.6488 7.07269 29.6033 7.60284C28.5412 19.5715 30.9774 31.5842 36.6568 42.3819L36.7089 42.4824L36.6785 42.5909C34.6804 49.7003 33.7664 57.0334 33.9631 64.3771C34.265 75.623 38.1622 87.0257 39.3504 90.2523L38.7617 90.4432Z" fill="black"/>
<path d="M125.418 51.1456C125.34 51.145 125.265 51.1188 125.207 51.0717C125.148 51.0246 125.11 50.9598 125.098 50.8888C125.087 50.8178 125.103 50.7454 125.144 50.6845C125.185 50.6236 125.248 50.5782 125.322 50.5565L140.637 46.2343C140.717 46.2171 140.802 46.2288 140.873 46.2668C140.944 46.3049 140.997 46.3666 141.022 46.4394C141.046 46.5123 141.039 46.591 141.004 46.6596C140.968 46.7282 140.905 46.7817 140.828 46.8093L125.513 51.1315C125.483 51.1409 125.45 51.1457 125.418 51.1456Z" fill="black"/>
<path d="M140.407 56.372H140.357L125.912 54.2612C125.825 54.2489 125.747 54.2054 125.696 54.1401C125.644 54.0749 125.622 53.9934 125.636 53.9134C125.649 53.8334 125.696 53.7616 125.766 53.7137C125.837 53.6658 125.925 53.6458 126.011 53.6581L140.457 55.7689C140.544 55.7751 140.624 55.8127 140.68 55.8736C140.737 55.9345 140.765 56.0136 140.758 56.0936C140.751 56.1736 140.711 56.2478 140.645 56.3001C140.579 56.3523 140.494 56.3782 140.407 56.372Z" fill="black"/>
<path d="M20.931 56.9751C20.8446 56.9839 20.758 56.9606 20.6901 56.9102C20.6223 56.8599 20.5789 56.7867 20.5693 56.7067C20.5598 56.6267 20.5851 56.5465 20.6395 56.4838C20.6938 56.421 20.7729 56.3808 20.8594 56.372L34.0018 53.658C34.0835 53.646 34.1671 53.6633 34.2356 53.7062C34.3041 53.7492 34.3524 53.8147 34.3707 53.8894C34.3889 53.9641 34.3758 54.0424 34.3339 54.1084C34.292 54.1745 34.2245 54.2233 34.1452 54.245L21.0027 56.959C20.9797 56.9674 20.9556 56.9728 20.931 56.9751Z" fill="black"/>
<path d="M34.6163 50.9443H34.5663L20.1205 48.8334C20.0777 48.8274 20.0366 48.8135 19.9996 48.7928C19.9626 48.772 19.9304 48.7447 19.9047 48.7124C19.8791 48.6801 19.8606 48.6435 19.8503 48.6046C19.84 48.5656 19.8381 48.5252 19.8446 48.4856C19.8512 48.446 19.8661 48.408 19.8885 48.3738C19.911 48.3395 19.9405 48.3097 19.9754 48.286C20.0103 48.2623 20.0499 48.2451 20.0919 48.2356C20.134 48.226 20.1776 48.2243 20.2204 48.2303L34.6662 50.3412C34.7527 50.3473 34.8329 50.385 34.8893 50.4459C34.9458 50.5067 34.9737 50.5859 34.9671 50.6659C34.9605 50.7458 34.9198 50.8201 34.854 50.8723C34.7882 50.9245 34.7027 50.9504 34.6163 50.9443Z" fill="black"/>
<path d="M79.3661 73.7619C97.722 73.7619 112.602 63.2311 112.602 50.2408C112.602 37.2505 97.722 26.7197 79.3661 26.7197C61.0103 26.7197 46.1299 37.2505 46.1299 50.2408C46.1299 63.2311 61.0103 73.7619 79.3661 73.7619Z" fill="#444444"/>
<path d="M79.3658 74.063C60.8599 74.063 45.8037 63.376 45.8037 50.2404C45.8037 37.1047 60.8599 26.4177 79.3658 26.4177C97.8716 26.4177 112.928 37.1047 112.928 50.2404C112.928 63.376 97.8716 74.063 79.3658 74.063ZM79.3658 27.0208C61.2271 27.0208 46.4554 37.4364 46.4554 50.2404C46.4554 63.0443 61.2271 73.4599 79.3658 73.4599C97.5045 73.4599 112.276 63.0443 112.276 50.2404C112.276 37.4364 97.5045 27.0208 79.3658 27.0208Z" fill="black"/>
<path d="M58.1855 55.0658C61.9647 55.0658 65.0283 52.2306 65.0283 48.7332C65.0283 45.2358 61.9647 42.4006 58.1855 42.4006C54.4064 42.4006 51.3428 45.2358 51.3428 48.7332C51.3428 52.2306 54.4064 55.0658 58.1855 55.0658Z" fill="#F8F59C"/>
<path d="M58.1862 55.3664C56.7684 55.3664 55.3824 54.9774 54.2035 54.2484C53.0246 53.5194 52.1058 52.4833 51.5633 51.2711C51.0207 50.0588 50.8787 48.7249 51.1553 47.438C51.4319 46.1511 52.1147 44.969 53.1172 44.0412C54.1198 43.1134 55.3971 42.4816 56.7877 42.2256C58.1782 41.9696 59.6196 42.101 60.9295 42.6031C62.2394 43.1053 63.359 43.9556 64.1467 45.0466C64.9344 46.1375 65.3548 47.4202 65.3548 48.7323C65.3548 50.4918 64.5995 52.1792 63.2551 53.4234C61.9108 54.6675 60.0874 55.3664 58.1862 55.3664ZM58.1862 42.7013C56.8973 42.7013 55.6373 43.055 54.5656 43.7177C53.4939 44.3804 52.6586 45.3223 52.1653 46.4243C51.6721 47.5263 51.543 48.739 51.7945 49.9089C52.046 51.0788 52.6666 52.1534 53.578 52.9969C54.4894 53.8403 55.6507 54.4148 56.9148 54.6475C58.179 54.8802 59.4893 54.7607 60.6801 54.3043C61.8709 53.8478 62.8887 53.0748 63.6048 52.083C64.3209 51.0912 64.7031 49.9251 64.7031 48.7323C64.7031 47.1328 64.0165 45.5987 62.7944 44.4677C61.5722 43.3367 59.9146 42.7013 58.1862 42.7013Z" fill="black"/>
<path d="M58.1865 53.2558C60.8859 53.2558 63.0742 51.2307 63.0742 48.7325C63.0742 46.2344 60.8859 44.2092 58.1865 44.2092C55.4871 44.2092 53.2988 46.2344 53.2988 48.7325C53.2988 51.2307 55.4871 53.2558 58.1865 53.2558Z" fill="black"/>
<path d="M58.1862 53.5579C57.155 53.5579 56.147 53.2749 55.2897 52.7447C54.4323 52.2146 53.7641 51.461 53.3695 50.5794C52.9749 49.6978 52.8717 48.7277 53.0728 47.7918C53.274 46.8558 53.7705 45.9961 54.4997 45.3214C55.2288 44.6466 56.1578 44.1871 57.1691 44.0009C58.1804 43.8147 59.2287 43.9103 60.1813 44.2755C61.134 44.6407 61.9482 45.2591 62.5211 46.0525C63.094 46.8459 63.3997 47.7788 63.3997 48.733C63.3997 50.0127 62.8504 51.2399 61.8727 52.1447C60.895 53.0495 59.5689 53.5579 58.1862 53.5579ZM58.1862 44.5113C57.2839 44.5113 56.4019 44.7589 55.6518 45.2228C54.9016 45.6867 54.3169 46.346 53.9716 47.1174C53.6263 47.8889 53.536 48.7377 53.712 49.5567C53.888 50.3756 54.3225 51.1278 54.9605 51.7182C55.5985 52.3087 56.4113 52.7108 57.2962 52.8736C58.1811 53.0365 59.0984 52.9529 59.9319 52.6334C60.7655 52.3139 61.4779 51.7728 61.9792 51.0785C62.4805 50.3842 62.748 49.568 62.748 48.733C62.748 47.6134 62.2674 46.5395 61.4119 45.7478C60.5564 44.9561 59.3961 44.5113 58.1862 44.5113Z" fill="black"/>
<path d="M102.066 55.0658C105.846 55.0658 108.909 52.2306 108.909 48.7332C108.909 45.2358 105.846 42.4006 102.066 42.4006C98.2872 42.4006 95.2236 45.2358 95.2236 48.7332C95.2236 52.2306 98.2872 55.0658 102.066 55.0658Z" fill="#F8F59C"/>
<path d="M102.066 55.3664C100.648 55.3664 99.2623 54.9774 98.0834 54.2484C96.9045 53.5194 95.9857 52.4833 95.4431 51.2711C94.9006 50.0588 94.7586 48.7249 95.0352 47.438C95.3118 46.1511 95.9946 44.969 96.9971 44.0412C97.9997 43.1134 99.277 42.4816 100.668 42.2256C102.058 41.9696 103.499 42.101 104.809 42.6031C106.119 43.1053 107.239 43.9556 108.027 45.0466C108.814 46.1375 109.235 47.4202 109.235 48.7323C109.235 50.4918 108.479 52.1792 107.135 53.4234C105.791 54.6675 103.967 55.3664 102.066 55.3664ZM102.066 42.7013C100.777 42.7013 99.5172 43.055 98.4455 43.7177C97.3738 44.3804 96.5385 45.3223 96.0452 46.4243C95.552 47.5263 95.4229 48.739 95.6744 49.9089C95.9258 51.0788 96.5465 52.1534 97.4579 52.9969C98.3693 53.8403 99.5305 54.4148 100.795 54.6475C102.059 54.8802 103.369 54.7607 104.56 54.3043C105.751 53.8478 106.769 53.0748 107.485 52.083C108.201 51.0912 108.583 49.9251 108.583 48.7323C108.583 47.1328 107.896 45.5987 106.674 44.4677C105.452 43.3367 103.794 42.7013 102.066 42.7013Z" fill="black"/>
<path d="M102.066 53.2558C104.766 53.2558 106.954 51.2307 106.954 48.7325C106.954 46.2344 104.766 44.2092 102.066 44.2092C99.367 44.2092 97.1787 46.2344 97.1787 48.7325C97.1787 51.2307 99.367 53.2558 102.066 53.2558Z" fill="black"/>
<path d="M102.066 53.5579C101.035 53.5579 100.027 53.2749 99.1696 52.7447C98.3122 52.2146 97.644 51.461 97.2494 50.5794C96.8548 49.6978 96.7516 48.7277 96.9527 47.7918C97.1539 46.8558 97.6504 45.9961 98.3795 45.3214C99.1087 44.6466 100.038 44.1871 101.049 44.0009C102.06 43.8147 103.109 43.9103 104.061 44.2755C105.014 44.6407 105.828 45.2591 106.401 46.0525C106.974 46.8459 107.28 47.7788 107.28 48.733C107.28 50.0127 106.73 51.2399 105.753 52.1447C104.775 53.0495 103.449 53.5579 102.066 53.5579ZM102.066 44.5113C101.164 44.5113 100.282 44.7589 99.5316 45.2228C98.7814 45.6867 98.1967 46.346 97.8515 47.1174C97.5062 47.8889 97.4159 48.7377 97.5919 49.5567C97.7679 50.3756 98.2024 51.1278 98.8404 51.7182C99.4783 52.3087 100.291 52.7108 101.176 52.8736C102.061 53.0365 102.978 52.9529 103.812 52.6334C104.645 52.3139 105.358 51.7728 105.859 51.0785C106.36 50.3842 106.628 49.568 106.628 48.733C106.628 47.6134 106.147 46.5395 105.292 45.7478C104.436 44.9561 103.276 44.5113 102.066 44.5113Z" fill="black"/>
<path d="M77.7933 49.9652L80.0177 50.2406L82.0575 49.9712C82.1456 49.9594 82.2356 49.9713 82.3166 50.0054C82.3977 50.0396 82.4664 50.0945 82.5147 50.1638C82.563 50.233 82.5888 50.3136 82.589 50.396C82.5892 50.4784 82.5638 50.5592 82.5158 50.6286L80.5412 53.4994C80.4827 53.5808 80.4037 53.6477 80.3111 53.6946C80.2184 53.7414 80.1148 53.7667 80.0092 53.7683C79.9037 53.7699 79.7992 53.7477 79.705 53.7037C79.6107 53.6596 79.5294 53.595 79.4681 53.5155L77.3458 50.6347C77.2958 50.5657 77.2683 50.4849 77.2667 50.4018C77.265 50.3188 77.2892 50.2371 77.3364 50.1665C77.3837 50.0959 77.4519 50.0393 77.5329 50.0036C77.6139 49.968 77.7043 49.9546 77.7933 49.9652Z" fill="#F3D2C9"/>
<path d="M79.9979 54.0764C79.8391 54.0756 79.6831 54.0384 79.5436 53.9683C79.4041 53.8981 79.2855 53.7971 79.1985 53.6743L77.0761 50.7955C76.99 50.6787 76.9422 50.5413 76.9387 50.3999C76.9351 50.2585 76.9759 50.1192 77.0561 49.9988C77.1363 49.8784 77.2525 49.7822 77.3906 49.7216C77.5287 49.661 77.6828 49.6388 77.8343 49.6576L80.0066 49.927L82.0029 49.6616C82.1525 49.6424 82.3049 49.6632 82.4422 49.7214C82.5795 49.7797 82.696 49.873 82.7779 49.9904C82.8598 50.1079 82.9038 50.2445 82.9046 50.3843C82.9055 50.524 82.8632 50.6611 82.7828 50.7794L80.8082 53.6502C80.7224 53.7757 80.6042 53.8794 80.4642 53.952C80.3243 54.0247 80.167 54.064 80.0066 54.0663L79.9979 54.0764ZM77.7278 50.2567C77.7043 50.2565 77.6813 50.2622 77.661 50.2732C77.6407 50.2842 77.6241 50.3 77.6127 50.319C77.5971 50.3396 77.5887 50.3642 77.5887 50.3894C77.5887 50.4146 77.5971 50.4391 77.6127 50.4598L79.735 53.3386C79.7653 53.3781 79.8054 53.4104 79.8519 53.4327C79.8983 53.4551 79.9499 53.4669 80.0022 53.4672C80.055 53.467 80.1068 53.4543 80.1528 53.4304C80.1988 53.4064 80.2374 53.3721 80.2651 53.3305L82.2375 50.4598C82.2533 50.4396 82.2617 50.4153 82.2617 50.3904C82.2617 50.3655 82.2533 50.3412 82.2375 50.321C82.2236 50.2998 82.2031 50.2829 82.1787 50.2725C82.1543 50.2621 82.1272 50.2587 82.1007 50.2627L80.0174 50.5381L77.7474 50.2587L77.7278 50.2567Z" fill="black"/>
<path d="M76.7715 57.2086C76.5543 57.2086 76.3175 57.1965 76.0742 57.1744C75.9878 57.1664 75.9083 57.127 75.8533 57.0648C75.7983 57.0026 75.7723 56.9227 75.7809 56.8427C75.7896 56.7627 75.8322 56.6892 75.8994 56.6383C75.9666 56.5874 76.0529 56.5633 76.1394 56.5713C77.4123 56.6879 78.3464 56.4668 78.9112 55.9119C79.7389 55.1078 79.5325 53.8312 79.5303 53.8171C79.5171 53.7372 79.5387 53.6556 79.5904 53.5904C79.6422 53.5251 79.7198 53.4816 79.8062 53.4693C79.8926 53.4571 79.9808 53.4771 80.0513 53.525C80.1217 53.5729 80.1688 53.6447 80.182 53.7247C80.182 53.787 80.4383 55.3028 79.3935 56.3261C78.7896 56.9151 77.912 57.2086 76.7715 57.2086Z" fill="black"/>
<path d="M83.1242 57.4094C81.9837 57.4094 81.1083 57.1159 80.5174 56.5309C79.4726 55.5076 79.718 53.9918 79.7289 53.9295C79.7421 53.8495 79.7892 53.7777 79.8596 53.7298C79.9301 53.6819 80.0183 53.6619 80.1047 53.6742C80.1911 53.6864 80.2687 53.73 80.3205 53.7952C80.3722 53.8604 80.3938 53.942 80.3806 54.022C80.3806 54.0441 80.1807 55.3186 81.0019 56.1208C81.5688 56.6736 82.4986 56.8927 83.7715 56.7761C83.858 56.7681 83.9443 56.7922 84.0115 56.8431C84.0787 56.894 84.1213 56.9676 84.13 57.0475C84.1386 57.1275 84.1126 57.2074 84.0576 57.2696C84.0026 57.3318 83.9231 57.3713 83.8367 57.3793C83.5804 57.3973 83.3479 57.4094 83.1242 57.4094Z" fill="black"/>
<path d="M96.3809 20.6417L122.407 0.940275C122.815 0.63052 123.305 0.426512 123.826 0.349098C124.347 0.271683 124.881 0.323633 125.373 0.499628C125.866 0.675623 126.299 0.969365 126.628 1.35087C126.958 1.73238 127.172 2.18799 127.249 2.67118C127.953 7.21055 128.146 11.8102 128.194 18.955C128.242 26.0998 125.527 32.6495 123.68 43.4049C117.282 33.4336 107.762 25.4957 96.3809 20.6417Z" fill="#444444"/>
<path d="M123.86 44.2742L123.4 43.5605C117.035 33.6416 107.566 25.7451 96.2458 20.9159L95.7744 20.7149L122.203 0.701887C122.655 0.357888 123.198 0.131308 123.777 0.0453336C124.355 -0.0406404 124.947 0.0170687 125.494 0.212564C126.04 0.408059 126.52 0.734326 126.885 1.15798C127.251 1.58164 127.488 2.08749 127.573 2.62378C128.307 7.35815 128.476 12.1971 128.522 18.9579C128.552 23.3344 127.536 27.5581 126.35 32.4453C125.585 35.6257 124.718 39.2302 123.993 43.4539L123.86 44.2742ZM96.9887 20.5722C107.948 25.3515 117.159 32.9902 123.491 42.5493C124.188 38.6552 124.996 35.3 125.713 32.3146C126.927 27.2626 127.885 23.268 127.859 18.9619C127.814 12.2272 127.642 7.4084 126.917 2.70821C126.847 2.27814 126.656 1.87272 126.363 1.53328C126.069 1.19384 125.684 0.932523 125.245 0.775987C124.807 0.619451 124.331 0.57329 123.868 0.642205C123.404 0.71112 122.968 0.892656 122.605 1.16829L96.9887 20.5722Z" fill="black"/>
<path d="M127.156 2.79663C127.156 2.79663 111.95 21.8949 110.429 26.3177C109.291 29.6247 114.474 27.9863 117.164 26.949C117.28 26.9045 117.408 26.8936 117.531 26.9179C117.654 26.9421 117.767 27.0002 117.853 27.0846C117.94 27.169 117.997 27.2757 118.017 27.3908C118.037 27.5058 118.019 27.6237 117.965 27.729L116.162 31.2531C116.046 31.4792 116.005 31.7318 116.043 31.9795C116.081 32.2272 116.197 32.459 116.377 32.6462C116.556 32.8334 116.791 32.9677 117.052 33.0324C117.313 33.0971 117.589 33.0894 117.846 33.0102L119.998 32.3467C120.112 32.3115 120.234 32.3072 120.35 32.3346C120.467 32.3619 120.572 32.4197 120.653 32.5009C120.735 32.5822 120.79 32.6835 120.811 32.7927C120.832 32.9019 120.818 33.0144 120.772 33.1167L119.992 36.5705L123.685 43.4057C128.109 30.2799 129.296 16.4032 127.16 2.79663H127.156Z" fill="#F3D2C9"/>
<path d="M123.75 44.2095L119.644 36.6104L120.467 32.9918C120.489 32.9427 120.496 32.8887 120.486 32.8363C120.475 32.7838 120.449 32.7352 120.41 32.6962C120.371 32.6572 120.32 32.6295 120.265 32.6163C120.209 32.6031 120.15 32.6051 120.096 32.6219L117.943 33.2873C117.626 33.3858 117.284 33.3957 116.961 33.3158C116.638 33.2359 116.348 33.0697 116.126 32.8379C115.904 32.6061 115.761 32.319 115.715 32.0125C115.668 31.7059 115.72 31.3935 115.864 31.1141L117.667 27.59C117.693 27.5395 117.702 27.4827 117.693 27.4273C117.683 27.3719 117.655 27.3206 117.613 27.2804C117.572 27.2395 117.518 27.2114 117.459 27.1999C117.4 27.1884 117.338 27.194 117.283 27.2161C113.635 28.6233 111.313 28.941 110.383 28.1529C109.905 27.7508 109.816 27.0955 110.118 26.2169C111.639 21.7942 126.272 3.38943 126.893 2.6074L127.364 2.01636L127.477 2.74209C129.626 16.393 128.438 30.316 124.002 43.4858L123.75 44.2095ZM120.33 36.53L123.608 42.5972C127.743 29.9628 128.881 16.6513 126.945 3.57236C124.364 6.84119 112.076 22.5199 110.74 26.4079C110.522 27.0452 110.548 27.4855 110.822 27.7187C111.509 28.2996 113.829 27.9076 117.033 26.6693C117.21 26.6015 117.406 26.5851 117.594 26.6221C117.781 26.6591 117.953 26.7478 118.085 26.8765C118.217 27.0053 118.304 27.168 118.335 27.3435C118.365 27.5189 118.338 27.6987 118.256 27.8594L116.453 31.3815C116.364 31.5541 116.333 31.7469 116.362 31.9359C116.391 32.125 116.479 32.302 116.616 32.4451C116.753 32.5881 116.932 32.6908 117.131 32.7405C117.33 32.7901 117.541 32.7846 117.737 32.7244L119.889 32.061C120.06 32.0082 120.242 32.0011 120.417 32.0406C120.591 32.0801 120.75 32.1645 120.874 32.284C120.999 32.4035 121.084 32.5533 121.121 32.7159C121.157 32.8786 121.143 33.0474 121.08 33.2029L120.33 36.53Z" fill="black"/>
<path d="M63.5077 21.4923C53.98 16.0262 44.0982 10.2143 34.5705 4.74816C32.6002 3.61834 29.4308 5.07383 29.4026 7.21887C29.3439 11.8045 28.5337 16.8886 30.0543 23.9048C30.8732 27.6923 31.2382 29.6503 32.0658 32.2477C33.1773 35.7395 34.612 39.1362 36.354 42.4C37.4745 40.3566 38.7827 38.4061 40.2641 36.57C41.5132 35.02 46.0337 29.6503 54.1668 25.312C57.1256 23.7363 60.2568 22.4559 63.5077 21.4923Z" fill="#444444"/>
<path d="M36.3494 43.0738L36.0626 42.533C34.3135 39.2538 32.8716 35.8418 31.7528 32.3345C31.0555 30.1452 30.6666 28.3681 30.1018 25.6803C29.9889 25.1495 29.8672 24.5806 29.7347 23.9634C28.5595 18.5355 28.7702 14.2474 28.9549 10.472C29.0113 9.33813 29.0635 8.26058 29.0765 7.2152C29.0895 6.16982 29.8042 5.14857 30.9881 4.54747C32.2481 3.90617 33.6861 3.88607 34.7419 4.49319C39.5057 7.22324 44.4369 10.09 49.2073 12.8623C53.9776 15.6345 58.9131 18.5033 63.6791 21.2374L64.2787 21.5812L63.6074 21.7822C60.3785 22.7394 57.2685 24.011 54.3295 25.5757C47.0154 29.4778 42.5404 34.2524 40.5245 36.7532C39.0554 38.5759 37.7574 40.5116 36.6448 42.539L36.3494 43.0738ZM33.0019 4.66005C32.4068 4.66464 31.8227 4.80775 31.3031 5.0762C30.3278 5.57074 29.7391 6.37287 29.7282 7.22325C29.7152 8.28471 29.6608 9.36024 29.6065 10.4981C29.4219 14.2414 29.2134 18.4812 30.3734 23.8468C30.5059 24.464 30.6275 25.0309 30.7427 25.5636C31.3314 28.3299 31.6876 30.0025 32.3784 32.1636C33.4251 35.4464 34.7575 38.6452 36.3624 41.7289C37.4246 39.8644 38.6419 38.0792 40.0032 36.3894C42.0495 33.8523 46.5874 29.0074 54.0037 25.051C56.7814 23.5732 59.7101 22.353 62.7472 21.4083C58.1637 18.7767 53.4389 16.0306 48.864 13.3669C44.0849 10.5946 39.1647 7.7379 34.403 4.99779C33.9788 4.76723 33.4937 4.65031 33.0019 4.66005Z" fill="black"/>
<path d="M29.4015 6.81689C29.4015 6.81689 45.7763 20.0731 47.8031 23.545C47.9225 23.746 48.4309 24.6748 48.0551 25.095C47.3382 25.8991 44.2731 23.8727 42.8698 24.91C42.7275 25.0172 42.6081 25.1482 42.5179 25.296C42.3599 25.5703 42.2912 25.8811 42.3201 26.1908C42.349 26.5005 42.4743 26.7958 42.6808 27.041C43.15 27.618 43.7669 28.5427 43.7083 29.4213C43.7079 29.6825 43.6207 29.9373 43.4585 30.151C43.0392 30.6255 42.2593 30.6295 42.0443 30.6295C40.6214 30.6295 39.8524 29.3609 39.8177 29.3026C39.6321 29.1638 39.3994 29.0903 39.1608 29.0951C38.9223 29.0999 38.6932 29.1826 38.5143 29.3288C38.4012 29.439 38.3296 29.58 38.3101 29.7308C38.2598 30.0788 38.3217 30.4327 38.4882 30.7481C38.9596 31.6306 38.4079 34.4773 38.0864 35.7599C37.6009 37.6735 36.7946 39.505 35.6968 41.1878C33.7418 37.2355 31.1024 30.935 29.8316 23.2957C29.1417 19.1237 28.8879 14.8999 29.0735 10.6828C29.156 9.10869 29.2929 7.78186 29.4015 6.81689Z" fill="#F3D2C9"/>
<path d="M35.702 41.4956H35.6847C35.6252 41.4926 35.5678 41.4745 35.5187 41.4433C35.4697 41.4121 35.4309 41.3689 35.4066 41.3186C32.5573 35.6081 30.5733 29.5608 29.511 23.3481C28.8174 19.1589 28.5621 14.9175 28.7485 10.6829C28.8137 9.38627 28.9223 8.06949 29.0743 6.79091C29.0796 6.73547 29.1013 6.68245 29.1371 6.63773C29.1729 6.59301 29.2213 6.55832 29.2771 6.53751C29.3328 6.5167 29.3937 6.51057 29.453 6.51981C29.5123 6.52906 29.5677 6.55331 29.6131 6.58988C30.2821 7.13267 46.0552 19.9225 48.0776 23.4024C48.2949 23.7884 48.7771 24.7494 48.2949 25.2881C47.8126 25.8269 46.9328 25.5575 45.8923 25.2741C44.8518 24.9906 43.6939 24.6709 43.0683 25.1454C42.9578 25.2282 42.8656 25.3299 42.7968 25.4449C42.6709 25.6669 42.6171 25.9179 42.6418 26.1676C42.6664 26.4172 42.7685 26.655 42.9358 26.8522C43.4637 27.5015 44.0806 28.4785 44.022 29.4294C44.0184 29.7548 43.9052 30.071 43.6983 30.3341C43.3551 30.7221 42.7946 30.9211 42.0343 30.9231C40.5723 30.9231 39.7382 29.7692 39.56 29.4938C39.4363 29.4192 39.2901 29.3832 39.1427 29.3912C38.9953 29.3992 38.8546 29.4506 38.7411 29.538C38.6786 29.6054 38.6399 29.6889 38.6303 29.7772C38.5912 30.0636 38.6433 30.3542 38.7802 30.6135C39.3949 31.7635 38.5065 35.4142 38.4022 35.8264C37.9096 37.7705 37.0908 39.6312 35.9757 41.3408C35.9483 41.3861 35.9087 41.4241 35.8607 41.4512C35.8128 41.4783 35.7582 41.4936 35.702 41.4956ZM29.6608 7.42819C29.5435 8.51579 29.4588 9.61545 29.4045 10.7031C29.2181 14.9 29.4706 19.1037 30.1583 23.2557C31.1748 29.2237 33.0518 35.0385 35.739 40.5447C36.6609 39.0294 37.3462 37.4009 37.7744 35.7078C38.1589 34.1739 38.5912 31.6248 38.2089 30.897C38.0061 30.5246 37.9304 30.1039 37.9916 29.6908C38.0209 29.4734 38.1262 29.2708 38.2914 29.1138C38.5293 28.9176 38.835 28.8063 39.1535 28.8C39.4721 28.7938 39.7826 28.8929 40.0293 29.0796C40.0595 29.1019 40.0839 29.13 40.1009 29.1621C40.1009 29.1741 40.7983 30.3301 42.0365 30.3301C42.5926 30.3301 42.9836 30.2054 43.1986 29.9622C43.3158 29.7976 43.3771 29.6044 43.3746 29.4073C43.418 28.6374 42.875 27.7991 42.4123 27.2241C42.1669 26.9323 42.0188 26.5807 41.986 26.2122C41.9532 25.8437 42.0372 25.4744 42.2276 25.1494C42.3391 24.9681 42.4865 24.8078 42.6621 24.677C43.5593 24.0136 44.8996 24.3774 46.0813 24.6991C46.7634 24.884 47.6019 25.1132 47.8017 24.9001C47.9473 24.7373 47.8235 24.2166 47.5128 23.6939C45.7337 20.6322 32.361 9.63354 29.6608 7.42819Z" fill="black"/>
<path d="M203.622 102.912C206.839 104.283 211.929 107.015 215.352 112.16C223.264 124.051 217.368 141.463 206.366 150.624C198.38 157.274 189.185 158.319 181.951 159.182C177.711 159.686 158.056 161.952 144.557 150.624C141.827 148.332 135.433 142.962 136.376 136.324C136.865 132.906 139.372 128.345 143.647 127.076C151.839 124.636 156.742 137.162 172.124 138.702C174.339 138.923 183.828 139.623 191.24 134.079C192.454 133.17 194.457 131.465 196.888 127.645C199.386 123.719 203.607 115.581 203.622 102.912Z" fill="#444444"/>
<path d="M173.444 160C161.631 160 151.491 156.85 144.335 150.847C141.566 148.523 135.079 143.079 136.05 136.284C136.591 132.513 139.339 128.042 143.545 126.783C147.672 125.555 150.885 127.891 154.96 130.844C159.12 133.86 164.301 137.609 172.156 138.397C175.547 138.737 184.173 138.972 191.033 133.837C192.285 132.901 194.225 131.224 196.605 127.487C200.97 120.634 203.283 112.136 203.294 102.912V102.442L203.757 102.643C208.97 104.87 212.976 108.021 215.628 112.005C219.356 117.608 220.292 124.883 218.265 132.491C216.389 139.541 212.129 146.231 206.581 150.853C198.584 157.511 189.48 158.593 182.166 159.463L181.99 159.484C179.156 159.825 176.302 159.997 173.444 160ZM145.743 127.061C145.065 127.062 144.391 127.162 143.747 127.358C139.798 128.534 137.213 132.786 136.7 136.362C135.772 142.844 142.081 148.139 144.774 150.401C153.463 157.686 166.645 160.698 181.921 158.882L182.097 158.86C189.322 158.002 198.313 156.932 206.157 150.399C216.801 141.533 222.936 124.115 215.085 112.319C212.581 108.553 208.838 105.55 203.957 103.387C203.867 112.536 201.528 120.965 197.179 127.792C194.746 131.612 192.747 133.341 191.455 134.308C184.406 139.583 175.571 139.334 172.1 138.996C164.062 138.192 158.796 134.372 154.574 131.321C151.348 128.989 148.684 127.061 145.743 127.061Z" fill="black"/>
</svg>
