<svg width="26" height="32" viewBox="0 0 26 32" fill="none" xmlns="http://www.w3.org/2000/svg">
<g id="fruit">
<path d="M13.3038 32C19.9166 32 25.2773 26.6393 25.2773 20.0265C25.2773 13.4138 19.9166 8.05307 13.3038 8.05307V32Z" fill="black"/>
<path d="M11.9735 0C5.3607 -5.78106e-07 5.78106e-07 5.3607 0 11.9735C-5.78106e-07 18.5862 5.3607 23.9469 11.9735 23.9469L11.9735 0Z" fill="black"/>
<path d="M16.6298 23.1996C17.0343 25.0404 18.2552 28.4272 19.903 27.2479C21.5508 26.0685 18.4075 24.0577 16.6298 23.1996Z" fill="white"/>
<path d="M16.6298 17.3523C18.4503 16.8645 21.778 15.4907 20.5249 13.8983C19.2718 12.3058 17.4061 15.5374 16.6298 17.3523Z" fill="white"/>
<path d="M16.6298 20.4772C18.262 21.4196 21.5864 22.8013 21.8264 20.7891C22.0664 18.777 18.462 19.7428 16.6298 20.4772Z" fill="white"/>
</g>
</svg>
